<?xml version="1.0"?>
<!DOCTYPE svg PUBLIC "-//W3C//DTD SVG 1.1//EN"
  "http://www.w3.org/Graphics/SVG/1.1/DTD/svg11.dtd">
<svg width="960" height="320" xmlns="http://www.w3.org/2000/svg"
    xmlns:xlink="http://www.w3.org/1999/xlink">
    <style>
        /* <![CDATA[ */
        .key rect {
            width: 64;
            height: 64;
            fill: white;
            stroke-width: 1;
        }
        .iso { fill: #777; font-size: 7pt; }
        .key text { text-anchor: middle; }
        .control { font-size: 14pt; }
        .control.control-large { font-size: 20pt; }
        /* ]]> */
    </style>
    <g stroke-width="0.1" font-family="sans-serif" stroke="black">
        <g id="row-e">
            <g class='key e00' transform="translate(0, 0)">
                <rect width="64" height="64"/>
                <text class="iso" x="12" y="60">E00</text>
            </g>
            <g class='key e01' transform="translate(64, 0)">
                <rect width="64" height="64"/>
                <text class="iso" x="12" y="60">E01</text>
            </g>
            <g class='key e02' transform="translate(128, 0)">
                <rect width="64" height="64"/>
                <text class="iso" x="12" y="60">E02</text>
            </g>
            <g class='key e03' transform="translate(192, 0)">
                <rect width="64" height="64"/>
                <text class="iso" x="12" y="60">E03</text>
            </g>
            <g class='key e04' transform="translate(256, 0)">
                <rect width="64" height="64"/>
                <text class="iso" x="12" y="60">E04</text>
            </g>
            <g class='key e05' transform="translate(320, 0)">
                <rect width="64" height="64"/>
                <text class="iso" x="12" y="60">E05</text>
            </g>
            <g class='key e06' transform="translate(384, 0)">
                <rect width="64" height="64"/>
                <text class="iso" x="12" y="60">E06</text>
            </g>
            <g class='key e07' transform="translate(448, 0)">
                <rect width="64" height="64"/>
                <text class="iso" x="12" y="60">E07</text>
            </g>
            <g class='key e08' transform="translate(512, 0)">
                <rect width="64" height="64"/>
                <text class="iso" x="12" y="60">E08</text>
            </g>
            <g class='key e09' transform="translate(576, 0)">
                <rect width="64" height="64"/>
                <text class="iso" x="12" y="60">E09</text>
            </g>
            <g class='key e10' transform="translate(640, 0)">
                <rect width="64" height="64"/>
                <text class="iso" x="12" y="60">E10</text>
            </g>
            <g class='key e11' transform="translate(704, 0)">
                <rect width="64" height="64"/>
                <text class="iso" x="12" y="60">E11</text>
            </g>
            <g class='key e12' transform="translate(768, 0)">
                <rect width="64" height="64"/>
                <text class="iso" x="12" y="60">E12</text>
            </g>
            <g class='key e13' transform="translate(832, 0)">
                <rect width="64" height="64" style="fill: #fee"/>
                <text class="iso" x="12" y="60">E13</text>
            </g>
            <g class='key e14' transform="translate(896, 0)">
                <rect width="64" height="64" style="fill: #eee"/>
                <text class="iso" x="12" y="60">E14</text>
                <text class="control control-large" x="32" y="32"
                        id="e13-primary" dy=".4em">
                    &#x232b;
                </text>
            </g>
        </g>
        <g id="row-d" transform="translate(0, 64)">
            <g class='key d00' transform="translate(0, 0)">
                <rect width="96" height="64" style="fill: #eee"/>
                <text class="iso" x="12" y="60">D00</text>
                <text class="control control-large" x="48" y="32"
                        id="d00-primary" dy=".4em">
                    &#x21b9;
                </text>
            </g>
            <g class='key d01' transform="translate(96, 0)">
                <rect width="64" height="64"/>
                <text class="iso" x="12" y="60">D01</text>
            </g>
            <g class='key d02' transform="translate(160, 0)">
                <rect width="64" height="64"/>
                <text class="iso" x="12" y="60">D02</text>
            </g>
            <g class='key d03' transform="translate(224, 0)">
                <rect width="64" height="64"/>
                <text class="iso" x="12" y="60">D03</text>
            </g>
            <g class='key d04' transform="translate(288, 0)">
                <rect width="64" height="64"/>
                <text class="iso" x="12" y="60">D04</text>
            </g>
            <g class='key d05' transform="translate(352, 0)">
                <rect width="64" height="64"/>
                <text class="iso" x="12" y="60">D05</text>
            </g>
            <g class='key d06' transform="translate(416, 0)">
                <rect width="64" height="64"/>
                <text class="iso" x="12" y="60">D06</text>
            </g>
            <g class='key d07' transform="translate(480, 0)">
                <rect width="64" height="64"/>
                <text class="iso" x="12" y="60">D07</text>
            </g>
            <g class='key d08' transform="translate(544, 0)">
                <rect width="64" height="64"/>
                <text class="iso" x="12" y="60">D08</text>
            </g>
            <g class='key d09' transform="translate(608, 0)">
                <rect width="64" height="64"/>
                <text class="iso" x="12" y="60">D09</text>
            </g>
            <g class='key d10' transform="translate(672, 0)">
                <rect width="64" height="64"/>
                <text class="iso" x="12" y="60">D10</text>
            </g>
            <g class='key d11' transform="translate(736, 0)">
                <rect width="64" height="64"/>
                <text class="iso" x="12" y="60">D11</text>
            </g>
            <g class='key d12' transform="translate(800, 0)">
                <rect width="64" height="64"/>
                <text class="iso" x="12" y="60">D12</text>
            </g>
            <g class='key d13' transform="translate(864, 0)">
                <rect width="96" height="64" style="fill: #efe"/>
                <text class="iso" x="12" y="60">D13</text>
            </g>
        </g>
        <g id="row-c" transform="translate(0, 128)">
            <g class='key c00' transform="translate(0, 0)">
                <rect width="112" height="64" style="fill: #eee"/>
                <text class="iso" x="12" y="60">C00</text>
                <text class="control control-large" x="56" y="32"
                        id="c00-primary" dy=".4em">
                    &#x21ea;
                </text>
            </g>
            <g class='key c01' transform="translate(112, 0)">
                <rect width="64" height="64"/>
                <text class="iso" x="12" y="60">C01</text>
            </g>
            <g class='key c02' transform="translate(176, 0)">
                <rect width="64" height="64"/>
                <text class="iso" x="12" y="60">C02</text>
            </g>
            <g class='key c03' transform="translate(240, 0)">
                <rect width="64" height="64"/>
                <text class="iso" x="12" y="60">C03</text>
            </g>
            <g class='key c04' transform="translate(304, 0)">
                <rect width="64" height="64"/>
                <text class="iso" x="12" y="60">C04</text>
            </g>
            <g class='key c05' transform="translate(368, 0)">
                <rect width="64" height="64"/>
                <text class="iso" x="12" y="60">C05</text>
            </g>
            <g class='key c06' transform="translate(432, 0)">
                <rect width="64" height="64"/>
                <text class="iso" x="12" y="60">C06</text>
            </g>
            <g class='key c07' transform="translate(496, 0)">
                <rect width="64" height="64"/>
                <text class="iso" x="12" y="60">C07</text>
            </g>
            <g class='key c08' transform="translate(560, 0)">
                <rect width="64" height="64"/>
                <text class="iso" x="12" y="60">C08</text>
            </g>
            <g class='key c09' transform="translate(624, 0)">
                <rect width="64" height="64"/>
                <text class="iso" x="12" y="60">C09</text>
            </g>
            <g class='key c10' transform="translate(688, 0)">
                <rect width="64" height="64"/>
                <text class="iso" x="12" y="60">C10</text>
            </g>
            <g class='key c11' transform="translate(752, 0)">
                <rect width="64" height="64"/>
                <text class="iso" x="12" y="60">C11</text>
            </g>
            <g class='key c12' transform="translate(816, 0)">
                <rect width="64" height="64" style="fill: #ffe"/>
                <text class="iso" x="12" y="60">C12</text>
            </g>
            <g class='key c13' transform="translate(880, 0)" width="80" height="64">
                <rect width="80" height="64" style="fill: #eee"/>
                <text class="iso" x="12" y="60">C13</text>
                <text class="control control-large" x="40" y="32"
                        id="c13-primary" dy=".4em">
                    &#x23ce;
                </text>
            </g>
        </g>
        <g id="row-b" transform="translate(0, 192)">
            <g class='key b99' transform="translate(0, 0)">
                <rect width="80" height="64" style="fill: #eee"/>
                <text class="iso" x="12" y="60">B99</text>
                <text class="control control-large" x="40" y="32"
                        id="b99-primary" dy=".4em">
                    &#x21e7;
                </text>
            </g>
            <g class='key b00' transform="translate(80, 0)">
                <rect width="64" height="64" style="fill: #fee"/>
                <text class="iso" x="12" y="60">B00</text>
            </g>
            <g class='key b01' transform="translate(144, 0)">
                <rect width="64" height="64"/>
                <text class="iso" x="12" y="60">B01</text>
            </g>
            <g class='key b02' transform="translate(208, 0)">
                <rect width="64" height="64"/>
                <text class="iso" x="12" y="60">B02</text>
            </g>
            <g class='key b03' transform="translate(272, 0)">
                <rect width="64" height="64"/>
                <text class="iso" x="12" y="60">B03</text>
            </g>
            <g class='key b04' transform="translate(336, 0)">
                <rect width="64" height="64"/>
                <text class="iso" x="12" y="60">B04</text>
            </g>
            <g class='key b05' transform="translate(400, 0)">
                <rect width="64" height="64"/>
                <text class="iso" x="12" y="60">B05</text>
            </g>
            <g class='key b06' transform="translate(464, 0)">
                <rect width="64" height="64"/>
                <text class="iso" x="12" y="60">B06</text>
            </g>
            <g class='key b07' transform="translate(528, 0)">
                <rect width="64" height="64"/>
                <text class="iso" x="12" y="60">B07</text>
            </g>
            <g class='key b08' transform="translate(592, 0)">
                <rect width="64" height="64"/>
                <text class="iso" x="12" y="60">B08</text>
            </g>
            <g class='key b09' transform="translate(656, 0)">
                <rect width="64" height="64"/>
                <text class="iso" x="12" y="60">B09</text>
            </g>
            <g class='key b10' transform="translate(720, 0)">
                <rect width="64" height="64"/>
                <text class="iso" x="12" y="60">B10</text>
            </g>
            <g class='key b11' transform="translate(784, 0)">
                <rect width="64" height="64" style="fill: #eef"/>
                <text class="iso" x="12" y="60">B11</text>
            </g>
            <g class='key b12' transform="translate(848, 0)">
                <rect width="112" height="64" style="fill: #eee"/>
                <text class="iso" x="12" y="60">B12</text>
                <text class="control control-large" x="56" y="32"
                        id="b12-primary" dy=".4em">
                    &#x21e7;
                </text>
            </g>
        </g>
        <g id="row-a" transform="translate(0, 256)">
            <g class='key a99' transform="translate(0, 0)">
                <rect width="112" height="64" style="fill: #eee"/>
                <text class="iso" x="12" y="60">A99</text>
                <text class="control" x="56" y="32"
                        id="a99-primary" dy=".8em">
                    Ctrl
                </text>
            </g>
            <g class='key a00' transform="translate(112, 0)">
                <rect width="64" height="64" style="fill: #eee"/>
                <text class="iso" x="12" y="60">A00</text>
                <text class="control" x="32" y="32"
                        id="a00-primary" dy=".8em">

                </text>
            </g>
            <g class='key a01' transform="translate(176, 0)">
                <rect width="64" height="64" style="fill: #eee"/>
                <text class="iso" x="12" y="60">A01</text>
                <text class="control" x="32" y="32"
                        id="a01-primary" dy=".8em">

                </text>
            </g>
            <g class='key a02' transform="translate(240, 0)">
                <rect width="64" height="64" style="fill: #eee"/>
                <text class="iso" x="12" y="60">A02</text>
                <text class="control" x="32" y="32"
                        id="a01-primary" dy=".8em">
                    Alt
                </text>
            </g>
            <g class='key a03' transform="translate(304, 0)">
                <rect width="320" height="64" style="fill: white"/>
                <text class="iso" x="12" y="60">A03</text>
                <text class="control control-large" x="160" y="32"
                        id="a03-primary" dy=".4em">
                    &#x2423;
                </text>
            </g>
            <!--
            <g class='key a04' transform="translate(368, 0)">
                <rect width="64" height="64" style="fill: #eee"/>
                <text class="iso" x="12" y="60">A04</text>
            </g>
            <g class='key a05' transform="translate(432, 0)">
                <rect width="64" height="64" style="fill: #eee"/>
                <text class="iso" x="12" y="60">A05</text>
            </g>
            <g class='key a06' transform="translate(496, 0)">
                <rect width="64" height="64" style="fill: #eee"/>
                <text class="iso" x="12" y="60">A06</text>
            </g>
            <g class='key a07' transform="translate(560, 0)">
                <rect width="64" height="64" style="fill: #eee"/>
                <text class="iso" x="12" y="60">A07</text>
            </g>
            -->
            <g class='key a08' transform="translate(624, 0)">
                <rect width="64" height="64" style="fill: #eee"/>
                <text class="iso" x="12" y="60">A08</text>
                <text class="control" x="32" y="32"
                        id="a08-primary" dy=".8em">
                    AltGr
                </text>
            </g>
            <g class='key a09' transform="translate(688, 0)">
                <rect width="64" height="64" style="fill: #eee"/>
                <text class="iso" x="12" y="60">A09</text>
            </g>
            <g class='key a10' transform="translate(752, 0)">
                <rect width="64" height="64" style="fill: #eee"/>
                <text class="iso" x="12" y="60">A10</text>
            </g>
            <g class='key a11' transform="translate(816, 0)">
                <rect width="64" height="64" style="fill: #eee"/>
                <text class="iso" x="12" y="60">A11</text>
            </g>
            <g class='key a12' transform="translate(880, 0)">
                <rect width="80" height="64" style="fill: #eee"/>
                <text class="iso" x="12" y="60">A12</text>
                <text class="control" x="40" y="32"
                        id="a12-primary" dy=".8em">
                    Ctrl
                </text>
            </g>
        </g>
    </g>
</svg>
