<?xml version="1.0"?>
<svg width="960" height="320" xmlns="http://www.w3.org/2000/svg">
    <g stroke-width="0.1" font-family="sans-serif" font-size="7pt" stroke="black">
         <g id="row-e">
            <g transform="translate(0, 0)">
                <rect stroke-width="1" width="64" height="64" stroke="black" fill="white"/>
                <text x="2" y="10">E00</text>
            </g>
            <g transform="translate(64, 0)">
                <rect stroke-width="1" width="64" height="64" stroke="black" fill="white"/>
                <text x="2" y="10">E01</text>
            </g>
            <g transform="translate(128, 0)">
                <rect stroke-width="1" width="64" height="64" stroke="black" fill="white"/>
                <text x="2" y="10">E02</text>
            </g>
            <g transform="translate(192, 0)">
                <rect stroke-width="1" width="64" height="64" stroke="black" fill="white"/>
                <text x="2" y="10">E03</text>
            </g>
            <g transform="translate(256, 0)">
                <rect stroke-width="1" width="64" height="64" stroke="black" fill="white"/>
                <text x="2" y="10">E04</text>
            </g>
            <g transform="translate(320, 0)">
                <rect stroke-width="1" width="64" height="64" stroke="black" fill="white"/>
                <text x="2" y="10">E05</text>
            </g>
            <g transform="translate(384, 0)">
                <rect stroke-width="1" width="64" height="64" stroke="black" fill="white"/>
                <text x="2" y="10">E06</text>
            </g>
            <g transform="translate(448, 0)">
                <rect stroke-width="1" width="64" height="64" stroke="black" fill="white"/>
                <text x="2" y="10">E07</text>
            </g>
            <g transform="translate(512, 0)">
                <rect stroke-width="1" width="64" height="64" stroke="black" fill="white"/>
                <text x="2" y="10">E08</text>
            </g>
            <g transform="translate(576, 0)">
                <rect stroke-width="1" width="64" height="64" stroke="black" fill="white"/>
                <text x="2" y="10">E09</text>
            </g>
            <g transform="translate(640, 0)">
                <rect stroke-width="1" width="64" height="64" stroke="black" fill="white"/>
                <text x="2" y="10">E10</text>
            </g>
            <g transform="translate(704, 0)">
                <rect stroke-width="1" width="64" height="64" stroke="black" fill="white"/>
                <text x="2" y="10">E11</text>
            </g>
            <g transform="translate(768, 0)">
                <rect stroke-width="1" width="64" height="64" stroke="black" fill="white"/>
                <text x="2" y="10">E12</text>
            </g>
            <g transform="translate(832, 0)">
                <rect stroke-width="1" width="64" height="64" stroke="black" fill="#fee"/>
                <text x="2" y="10">E13</text>
            </g>
            <g transform="translate(896, 0)">
                <rect stroke-width="1" width="64" height="64" stroke="black" fill="#eee"/>
                <text x="2" y="10">E14</text>
            </g>
        </g>
        <g id="row-d" transform="translate(0, 64)">
            <g transform="translate(0, 0)">
                <rect stroke-width="1" width="96" height="64" stroke="black" fill="#eee"/>
                <text x="2" y="10">D00</text>
            </g>
            <g transform="translate(96, 0)">
                <rect stroke-width="1" width="64" height="64" stroke="black" fill="white"/>
                <text x="2" y="10">D01</text>
            </g>
            <g transform="translate(160, 0)">
                <rect stroke-width="1" width="64" height="64" stroke="black" fill="white"/>
                <text x="2" y="10">D02</text>
            </g>
            <g transform="translate(224, 0)">
                <rect stroke-width="1" width="64" height="64" stroke="black" fill="white"/>
                <text x="2" y="10">D03</text>
            </g>
            <g transform="translate(288, 0)">
                <rect stroke-width="1" width="64" height="64" stroke="black" fill="white"/>
                <text x="2" y="10">D04</text>
            </g>
            <g transform="translate(352, 0)">
                <rect stroke-width="1" width="64" height="64" stroke="black" fill="white"/>
                <text x="2" y="10">D05</text>
            </g>
            <g transform="translate(416, 0)">
                <rect stroke-width="1" width="64" height="64" stroke="black" fill="white"/>
                <text x="2" y="10">D06</text>
            </g>
            <g transform="translate(480, 0)">
                <rect stroke-width="1" width="64" height="64" stroke="black" fill="white"/>
                <text x="2" y="10">D07</text>
            </g>
            <g transform="translate(544, 0)">
                <rect stroke-width="1" width="64" height="64" stroke="black" fill="white"/>
                <text x="2" y="10">D08</text>
            </g>
            <g transform="translate(608, 0)">
                <rect stroke-width="1" width="64" height="64" stroke="black" fill="white"/>
                <text x="2" y="10">D09</text>
            </g>
            <g transform="translate(672, 0)">
                <rect stroke-width="1" width="64" height="64" stroke="black" fill="white"/>
                <text x="2" y="10">D10</text>
            </g>
            <g transform="translate(736, 0)">
                <rect stroke-width="1" width="64" height="64" stroke="black" fill="white"/>
                <text x="2" y="10">D11</text>
            </g>
            <g transform="translate(800, 0)">
                <rect stroke-width="1" width="64" height="64" stroke="black" fill="white"/>
                <text x="2" y="10">D12</text>
            </g>
            <g transform="translate(864, 0)">
                <rect stroke-width="1" width="96" height="64" stroke="black" fill="#efe"/>
                <text x="2" y="10">D13</text>
            </g>
        </g>
        <g id="row-c" transform="translate(0, 128)">
            <g transform="translate(0, 0)">
                <rect stroke-width="1" width="112" height="64" stroke="black" fill="#eee"/>
                <text x="2" y="10">C00</text>
            </g>
            <g transform="translate(112, 0)">
                <rect stroke-width="1" width="64" height="64" stroke="black" fill="white"/>
                <text x="2" y="10">C01</text>
            </g>
            <g transform="translate(176, 0)">
                <rect stroke-width="1" width="64" height="64" stroke="black" fill="white"/>
                <text x="2" y="10">C02</text>
            </g>
            <g transform="translate(240, 0)">
                <rect stroke-width="1" width="64" height="64" stroke="black" fill="white"/>
                <text x="2" y="10">C03</text>
            </g>
            <g transform="translate(304, 0)">
                <rect stroke-width="1" width="64" height="64" stroke="black" fill="white"/>
                <text x="2" y="10">C04</text>
            </g>
            <g transform="translate(368, 0)">
                <rect stroke-width="1" width="64" height="64" stroke="black" fill="white"/>
                <text x="2" y="10">C05</text>
            </g>
            <g transform="translate(432, 0)">
                <rect stroke-width="1" width="64" height="64" stroke="black" fill="white"/>
                <text x="2" y="10">C06</text>
            </g>
            <g transform="translate(496, 0)">
                <rect stroke-width="1" width="64" height="64" stroke="black" fill="white"/>
                <text x="2" y="10">C07</text>
            </g>
            <g transform="translate(560, 0)">
                <rect stroke-width="1" width="64" height="64" stroke="black" fill="white"/>
                <text x="2" y="10">C08</text>
            </g>
            <g transform="translate(624, 0)">
                <rect stroke-width="1" width="64" height="64" stroke="black" fill="white"/>
                <text x="2" y="10">C09</text>
            </g>
            <g transform="translate(688, 0)">
                <rect stroke-width="1" width="64" height="64" stroke="black" fill="white"/>
                <text x="2" y="10">C10</text>
            </g>
            <g transform="translate(752, 0)">
                <rect stroke-width="1" width="64" height="64" stroke="black" fill="white"/>
                <text x="2" y="10">C11</text>
            </g>
            <g transform="translate(816, 0)">
                <rect stroke-width="1" width="64" height="64" stroke="black" fill="#ffe"/>
                <text x="2" y="10">C12</text>
            </g>
            <g transform="translate(880, 0)">
                <rect stroke-width="1" width="80" height="64" stroke="black" fill="#eee"/>
                <text x="2" y="10">C13</text>
            </g>
        </g>
        <g id="row-b" transform="translate(0, 192)">
            <g transform="translate(0, 0)">
                <rect stroke-width="1" width="80" height="64" stroke="black" fill="#eee"/>
                <text x="2" y="10">B99</text>
            </g>
            <g transform="translate(80, 0)">
                <rect stroke-width="1" width="64" height="64" stroke="black" fill="#fee"/>
                <text x="2" y="10">B00</text>
            </g>
            <g transform="translate(144, 0)">
                <rect stroke-width="1" width="64" height="64" stroke="black" fill="white"/>
                <text x="2" y="10">B01</text>
            </g>
            <g transform="translate(208, 0)">
                <rect stroke-width="1" width="64" height="64" stroke="black" fill="white"/>
                <text x="2" y="10">B02</text>
            </g>
            <g transform="translate(272, 0)">
                <rect stroke-width="1" width="64" height="64" stroke="black" fill="white"/>
                <text x="2" y="10">B03</text>
            </g>
            <g transform="translate(336, 0)">
                <rect stroke-width="1" width="64" height="64" stroke="black" fill="white"/>
                <text x="2" y="10">B04</text>
            </g>
            <g transform="translate(400, 0)">
                <rect stroke-width="1" width="64" height="64" stroke="black" fill="white"/>
                <text x="2" y="10">B05</text>
            </g>
            <g transform="translate(464, 0)">
                <rect stroke-width="1" width="64" height="64" stroke="black" fill="white"/>
                <text x="2" y="10">B06</text>
            </g>
            <g transform="translate(528, 0)">
                <rect stroke-width="1" width="64" height="64" stroke="black" fill="white"/>
                <text x="2" y="10">B07</text>
            </g>
            <g transform="translate(592, 0)">
                <rect stroke-width="1" width="64" height="64" stroke="black" fill="white"/>
                <text x="2" y="10">B08</text>
            </g>
            <g transform="translate(656, 0)">
                <rect stroke-width="1" width="64" height="64" stroke="black" fill="white"/>
                <text x="2" y="10">B09</text>
            </g>
            <g transform="translate(720, 0)">
                <rect stroke-width="1" width="64" height="64" stroke="black" fill="white"/>
                <text x="2" y="10">B10</text>
            </g>
            <g transform="translate(784, 0)">
                <rect stroke-width="1" width="64" height="64" stroke="black" fill="#eef"/>
                <text x="2" y="10">B11</text>
            </g>
            <g transform="translate(848, 0)">
                <rect stroke-width="1" width="112" height="64" stroke="black" fill="#eee"/>
                <text x="2" y="10">B12</text>
            </g>
        </g>
        <g id="row-a" transform="translate(0, 256)">
            <g transform="translate(0, 0)">
                <rect stroke-width="1" width="112" height="64" stroke="black" fill="#eee"/>
                <text x="2" y="10">A99</text>
            </g>
            <g transform="translate(112, 0)">
                <rect stroke-width="1" width="64" height="64" stroke="black" fill="#eee"/>
                <text x="2" y="10">A00</text>
            </g>
            <g transform="translate(176, 0)">
                <rect stroke-width="1" width="64" height="64" stroke="black" fill="#eee"/>
                <text x="2" y="10">A01</text>
            </g>
            <g transform="translate(240, 0)">
                <rect stroke-width="1" width="64" height="64" stroke="black" fill="#eee"/>
                <text x="2" y="10">A02</text>
            </g>
            <g transform="translate(304, 0)">
                <rect stroke-width="1" width="320" height="64" stroke="black" fill="white"/>
                <text x="2" y="10">A03</text>
            </g>
            <!--
            <g transform="translate(368, 0)">
                <rect stroke-width="1" width="64" height="64" stroke="black" fill="#eee"/>
                <text x="2" y="10">A04</text>
            </g>
            <g transform="translate(432, 0)">
                <rect stroke-width="1" width="64" height="64" stroke="black" fill="#eee"/>
                <text x="2" y="10">A05</text>
            </g>
            <g transform="translate(496, 0)">
                <rect stroke-width="1" width="64" height="64" stroke="black" fill="#eee"/>
                <text x="2" y="10">A06</text>
            </g>
            <g transform="translate(560, 0)">
                <rect stroke-width="1" width="64" height="64" stroke="black" fill="#eee"/>
                <text x="2" y="10">A07</text>
            </g>
            -->
            <g transform="translate(624, 0)">
                <rect stroke-width="1" width="64" height="64" stroke="black" fill="#eee"/>
                <text x="2" y="10">A08</text>
            </g>
            <g transform="translate(688, 0)">
                <rect stroke-width="1" width="64" height="64" stroke="black" fill="#eee"/>
                <text x="2" y="10">A09</text>
            </g>
            <g transform="translate(752, 0)">
                <rect stroke-width="1" width="64" height="64" stroke="black" fill="#eee"/>
                <text x="2" y="10">A10</text>
            </g>
            <g transform="translate(816, 0)">
                <rect stroke-width="1" width="64" height="64" stroke="black" fill="#eee"/>
                <text x="2" y="10">A11</text>
            </g>
            <g transform="translate(880, 0)">
                <rect stroke-width="1" width="80" height="64" stroke="black" fill="#eee"/>
                <text x="2" y="10">A12</text>
            </g>
        </g>
    </g>
</svg>
